<svg width="1441" height="442" viewBox="0 0 1441 442" fill="none" xmlns="http://www.w3.org/2000/svg">
<path d="M221.72 180.771C216.043 193.741 206.715 204.78 194.875 212.542C183.035 220.304 169.193 224.456 155.035 224.49V125.22C155.035 125.381 155.035 125.636 155.035 126.012C155.035 126.119 155.035 126.253 155.035 126.374V126.803C155.692 132.96 160.696 154.304 197.963 168.778C206.265 171.877 214.204 175.871 221.64 180.691" fill="#FF5900"/>
<path d="M218.208 323.85C218.212 330.806 217.551 337.746 216.235 344.576C215.921 346.142 215.072 347.549 213.834 348.558C212.595 349.566 211.045 350.112 209.448 350.103H10.8008C9.89178 350.103 8.99147 349.924 8.15165 349.576C7.31183 349.228 6.54893 348.718 5.90615 348.076C5.26338 347.433 4.7532 346.669 4.40534 345.83C4.05747 344.99 3.87845 344.09 3.87845 343.181V138.282C3.84352 113.233 12.5978 88.9647 28.6158 69.7057C22.7193 69.8525 16.8636 68.6888 11.4714 66.2984C7.38188 64.2149 4.08722 60.8494 2.09106 56.7166C0.0949082 52.5838 -0.492966 47.9112 0.417483 43.4127C0.49547 42.7978 0.726606 42.2121 1.0897 41.7097C1.45279 41.2073 1.93653 40.8042 2.49595 40.5372C3.05537 40.2702 3.67256 40.1478 4.29153 40.1814C4.9105 40.2151 5.51121 40.4035 6.03839 40.7296C10.0424 43.2479 14.3118 45.3176 18.7691 46.9007C15.2148 43.8859 12.4163 40.0805 10.5969 35.7895C8.77758 31.4986 7.98794 26.8412 8.29207 22.1904C8.35318 21.5219 8.59486 20.8826 8.99131 20.3408C9.38775 19.7991 9.92417 19.3756 10.5429 19.1151C11.1616 18.8547 11.8393 18.7674 12.5039 18.8625C13.1684 18.9577 13.7942 19.2315 14.315 19.6551C18.6088 23.1438 23.0868 26.3992 27.7298 29.4076C24.814 25.6806 22.7856 21.3385 21.7978 16.7108C20.81 12.083 20.8888 7.29129 22.0287 2.69864C22.2233 2.00766 22.615 1.38797 23.1553 0.915346C23.6957 0.442718 24.3614 0.137722 25.0721 0.0367982C25.7828 -0.0641259 26.5078 0.0435892 27.1583 0.347115C27.8089 0.65064 28.3568 1.13691 28.7361 1.7464C46.9535 30.1725 84.3272 30.9636 106.22 30.9636C107.911 30.8966 109.628 30.8429 111.332 30.8429H155.265V46.9408H140.254C128.453 46.7379 116.73 48.8755 105.761 53.2303C94.7918 57.5851 84.7948 64.0708 76.3472 72.3123C67.8995 80.5538 61.1687 90.3881 56.5442 101.246C51.9198 112.104 49.4931 123.771 49.4045 135.573C49.3159 147.375 51.5675 159.077 56.0284 170.003C60.4893 180.929 67.0712 190.863 75.3941 199.231C83.717 207.598 93.6156 214.233 104.518 218.753C115.42 223.272 127.11 225.585 138.912 225.559H155.225C174.034 234.204 189.971 248.06 201.146 265.486C212.321 282.912 218.265 303.176 218.275 323.877" fill="#001A9C"/>
<path d="M255.593 203.522C255.426 204.185 255.079 204.788 254.591 205.266C254.103 205.744 253.493 206.078 252.828 206.232C252.163 206.386 251.468 206.353 250.82 206.138C250.171 205.923 249.595 205.533 249.154 205.012C235.548 188.721 217.946 176.241 198.071 168.792C160.831 154.317 155.841 132.974 155.143 126.817C155.062 125.998 155.049 125.475 155.049 125.22V29.8271C199.412 29.8271 287.252 75.8132 255.553 203.522" fill="#FF8B00"/>
<path d="M155.049 45.8711V224.49H138.736C115.05 224.49 92.3343 215.081 75.5855 198.332C58.8368 181.583 49.4272 158.867 49.4272 135.18C49.4272 111.494 58.8368 88.7781 75.5855 72.0294C92.3343 55.2806 115.05 45.8711 138.736 45.8711H155.049Z" fill="white"/>
<path d="M133.934 102.697C133.934 106.695 132.748 110.604 130.527 113.929C128.305 117.253 125.149 119.844 121.455 121.374C117.761 122.904 113.695 123.304 109.774 122.524C105.852 121.744 102.25 119.819 99.4229 116.992C96.5956 114.164 94.6705 110.562 93.8904 106.641C93.1104 102.719 93.5107 98.654 95.0408 94.9599C96.5709 91.2659 99.1614 88.1093 102.486 85.8879C105.81 83.6665 109.72 82.481 113.718 82.481C114.29 82.481 114.858 82.5026 115.422 82.5473C115.761 82.58 116.083 82.7091 116.352 82.9182C116.621 83.1273 116.825 83.4083 116.94 83.7288C117.055 84.0493 117.077 84.3961 117.003 84.7285C116.929 85.0609 116.762 85.3651 116.521 85.6062C114.627 87.5008 113.562 90.0699 113.562 92.7492C113.562 95.4285 114.627 97.9985 116.521 99.8931C118.416 101.788 120.986 102.852 123.665 102.852C126.345 102.852 128.914 101.788 130.808 99.8931C131.049 99.6526 131.354 99.4857 131.687 99.4116C132.019 99.3375 132.365 99.3594 132.686 99.4747C133.006 99.5899 133.288 99.7937 133.497 100.063C133.706 100.331 133.834 100.654 133.867 100.993C133.867 101.556 133.934 102.12 133.934 102.697Z" fill="black"/>
<path d="M576.099 250.971C576.321 266.074 573.463 281.063 567.7 295.025C562.458 307.611 554.666 318.976 544.815 328.402C534.916 337.699 523.239 344.9 510.487 349.57C482.608 359.487 452.162 359.487 424.283 349.57C411.486 344.875 399.753 337.679 389.766 328.402C379.835 319.044 372.03 307.662 366.881 295.025C361.242 281.033 358.455 266.055 358.684 250.971V80.0259H406.749V249.053C406.75 256.972 407.774 264.858 409.794 272.515C411.724 280.059 415.166 287.133 419.91 293.308C424.902 299.647 431.3 304.74 438.597 308.185C457.039 315.817 477.757 315.817 496.2 308.185C503.503 304.744 509.908 299.656 514.913 293.321C519.654 287.144 523.095 280.071 525.028 272.529C527.047 264.871 528.071 256.986 528.073 249.066V80.0259H576.139L576.099 250.971Z" fill="black"/>
<path d="M627.088 167.047H670.578V196.413H671.343C676.025 186.536 683.353 178.151 692.511 172.186C703.016 165.053 715.489 161.385 728.182 161.695C738.765 161.405 749.272 163.557 758.888 167.986C767.031 171.885 774.2 177.555 779.87 184.58C785.427 191.583 789.53 199.623 791.942 208.231C794.485 217.162 795.768 226.405 795.753 235.691V350.12H749.981V248.65C749.96 243.037 749.574 237.431 748.827 231.868C748.164 226.332 746.486 220.966 743.877 216.039C741.366 211.375 737.768 207.385 733.386 204.408C728.074 201.123 721.89 199.528 715.652 199.833C709.024 199.658 702.461 201.168 696.576 204.22C691.43 206.981 686.942 210.82 683.416 215.475C679.889 220.245 677.24 225.605 675.596 231.305C673.825 237.184 672.922 243.289 672.913 249.428V350.133H627.142L627.088 167.047Z" fill="black"/>
<path d="M839.418 104.87C839.397 101.27 840.113 97.7027 841.523 94.3896C842.932 91.0765 845.005 88.0871 847.614 85.6062C850.338 82.8937 853.587 80.7673 857.163 79.3577C860.739 77.9481 864.566 77.2853 868.408 77.4098C876.208 77.1928 883.791 79.9945 889.577 85.2308C892.277 87.7417 894.43 90.7822 895.903 94.1624C897.375 97.5426 898.135 101.19 898.135 104.877C898.135 108.564 897.375 112.211 895.903 115.591C894.43 118.972 892.277 122.012 889.577 124.523C883.793 129.761 876.209 132.563 868.408 132.344C864.566 132.468 860.739 131.805 857.163 130.396C853.587 128.986 850.338 126.859 847.614 124.147C845.004 121.666 842.931 118.678 841.521 115.365C840.111 112.051 839.396 108.484 839.418 104.883M845.898 167.061H891.67V350.147H845.898V167.061Z" fill="black"/>
<path d="M987.289 167.047V192.603H988.431C991.023 188.673 994.026 185.03 997.391 181.737C1001.41 177.807 1005.97 174.469 1010.93 171.823C1016.68 168.737 1022.76 166.307 1029.05 164.58C1036.45 162.586 1044.09 161.624 1051.75 161.722C1063.79 161.583 1075.72 163.992 1086.77 168.791C1097.81 173.591 1107.72 180.673 1115.83 189.571C1123.86 198.46 1130.08 208.826 1134.14 220.09C1138.53 232.192 1140.73 244.98 1140.62 257.853C1140.72 270.77 1138.59 283.607 1134.33 295.803C1130.4 307.146 1124.31 317.623 1116.41 326.657C1108.2 335.939 1098.06 343.323 1086.71 348.297C1075.36 353.27 1063.07 355.715 1050.68 355.459C1038.32 355.589 1026.11 352.833 1015 347.41C1004.82 342.617 996.177 335.089 990.027 325.665H989.262V441.623H943.491V167.047H987.289ZM1094.1 257.826C1094.08 250.647 1092.99 243.511 1090.85 236.657C1088.77 229.828 1085.48 223.429 1081.13 217.769C1076.72 212.11 1071.11 207.49 1064.72 204.234C1057.49 200.661 1049.51 198.893 1041.45 199.082C1033.61 198.955 1025.87 200.8 1018.93 204.448C1012.46 207.901 1006.7 212.559 1001.97 218.172C997.224 223.801 993.582 230.272 991.234 237.248C988.861 244.119 987.637 251.334 987.612 258.604C987.626 265.813 988.85 272.969 991.234 279.773C993.611 286.675 997.251 293.075 1001.97 298.648C1006.67 304.242 1012.44 308.843 1018.93 312.183C1026.08 315.605 1033.92 317.366 1041.84 317.333C1049.77 317.301 1057.59 315.476 1064.71 311.995C1071.09 308.629 1076.68 303.946 1081.11 298.258C1085.49 292.547 1088.79 286.082 1090.84 279.182C1092.97 272.263 1094.06 265.066 1094.09 257.826" fill="black"/>
<path d="M1302.23 326.872H1301.09C1295.88 335.605 1288.17 342.581 1278.97 346.901C1268.19 352.249 1256.29 354.931 1244.27 354.722C1236.49 354.675 1228.74 353.715 1221.19 351.865C1213.31 350.015 1205.82 346.786 1199.06 342.327C1192.23 337.792 1186.5 331.799 1182.27 324.78C1177.58 316.636 1175.26 307.344 1175.57 297.951C1174.96 285.91 1179.14 274.117 1187.2 265.151C1195.56 256.636 1205.82 250.231 1217.14 246.464C1230.27 241.944 1243.92 239.06 1257.76 237.879C1272.63 236.483 1287.19 235.786 1301.44 235.786V231.171C1301.78 226.227 1300.81 221.282 1298.63 216.829C1296.46 212.377 1293.15 208.575 1289.04 205.804C1280.24 200.189 1269.97 197.334 1259.53 197.607C1249.91 197.597 1240.41 199.68 1231.68 203.711C1223.48 207.31 1215.99 212.349 1209.56 218.588L1185.91 190.739C1196.31 181.093 1208.57 173.691 1221.95 168.993C1235.23 164.222 1249.23 161.772 1263.34 161.749C1277.08 161.297 1290.77 163.633 1303.59 168.617C1313.21 172.527 1321.78 178.67 1328.56 186.54C1334.59 193.767 1338.95 202.231 1341.33 211.331C1343.72 220.289 1344.94 229.519 1344.96 238.791V350.134H1302.23V326.872ZM1301.46 266.6H1291.16C1283.78 266.6 1276.03 266.917 1267.9 267.552C1260.26 268.096 1252.71 269.506 1245.39 271.751C1239.11 273.601 1233.27 276.714 1228.23 280.9C1225.94 282.911 1224.14 285.412 1222.95 288.218C1221.76 291.023 1221.22 294.061 1221.37 297.105C1221.23 300.929 1222.22 304.708 1224.22 307.971C1226.11 310.879 1228.66 313.297 1231.67 315.027C1234.86 316.86 1238.34 318.148 1241.96 318.837C1245.72 319.594 1249.56 319.976 1253.4 319.977C1259.92 320.446 1266.47 319.572 1272.64 317.407C1278.8 315.243 1284.46 311.835 1289.26 307.394C1293.46 302.766 1296.71 297.347 1298.81 291.454C1300.9 285.561 1301.8 279.311 1301.46 273.066V266.6Z" fill="black"/>
<path d="M1440.94 61.7681H1395.17V350.134H1440.94V61.7681Z" fill="black"/>
</svg>
