<svg width="1441" height="442" viewBox="0 0 1441 442" fill="none" xmlns="http://www.w3.org/2000/svg">
<path d="M576.099 250.971C576.321 266.074 573.463 281.063 567.7 295.025C562.458 307.611 554.666 318.976 544.815 328.402C534.916 337.699 523.239 344.9 510.487 349.57C482.608 359.487 452.162 359.487 424.283 349.57C411.486 344.875 399.753 337.679 389.766 328.402C379.835 319.044 372.03 307.662 366.881 295.025C361.242 281.033 358.455 266.055 358.684 250.971V80.0259H406.749V249.053C406.75 256.972 407.774 264.858 409.794 272.515C411.724 280.059 415.166 287.133 419.91 293.308C424.902 299.647 431.3 304.74 438.597 308.185C457.039 315.817 477.757 315.817 496.2 308.185C503.503 304.744 509.908 299.656 514.913 293.321C519.654 287.144 523.095 280.071 525.028 272.529C527.047 264.871 528.071 256.986 528.073 249.066V80.0259H576.139L576.099 250.971Z" fill="white"/>
<path d="M627.088 167.047H670.578V196.413H671.343C676.025 186.536 683.353 178.151 692.511 172.186C703.016 165.053 715.489 161.385 728.182 161.695C738.765 161.405 749.272 163.557 758.888 167.986C767.031 171.885 774.2 177.555 779.87 184.58C785.427 191.583 789.53 199.623 791.942 208.231C794.485 217.162 795.768 226.405 795.753 235.691V350.12H749.981V248.65C749.96 243.037 749.574 237.431 748.827 231.868C748.164 226.332 746.486 220.966 743.877 216.039C741.366 211.375 737.768 207.385 733.386 204.408C728.074 201.123 721.89 199.528 715.652 199.833C709.024 199.658 702.461 201.168 696.576 204.22C691.43 206.981 686.942 210.82 683.416 215.475C679.889 220.245 677.24 225.605 675.596 231.305C673.825 237.184 672.922 243.289 672.913 249.428V350.133H627.142L627.088 167.047Z" fill="white"/>
<path d="M839.418 104.87C839.397 101.27 840.113 97.7027 841.523 94.3896C842.932 91.0765 845.005 88.0871 847.614 85.6062C850.338 82.8937 853.587 80.7673 857.163 79.3577C860.739 77.9481 864.566 77.2853 868.408 77.4098C876.208 77.1928 883.791 79.9945 889.577 85.2308C892.277 87.7417 894.43 90.7822 895.903 94.1624C897.375 97.5426 898.135 101.19 898.135 104.877C898.135 108.564 897.375 112.211 895.903 115.591C894.43 118.972 892.277 122.012 889.577 124.523C883.793 129.761 876.209 132.563 868.408 132.344C864.566 132.468 860.739 131.805 857.163 130.396C853.587 128.986 850.338 126.859 847.614 124.147C845.004 121.666 842.931 118.678 841.521 115.365C840.111 112.051 839.396 108.484 839.418 104.883M845.898 167.061H891.67V350.147H845.898V167.061Z" fill="white"/>
<path d="M987.289 167.047V192.603H988.431C991.023 188.673 994.026 185.03 997.391 181.737C1001.41 177.807 1005.97 174.469 1010.93 171.823C1016.68 168.737 1022.76 166.307 1029.05 164.58C1036.45 162.586 1044.09 161.624 1051.75 161.722C1063.79 161.583 1075.72 163.992 1086.77 168.791C1097.81 173.591 1107.72 180.673 1115.83 189.571C1123.86 198.46 1130.08 208.826 1134.14 220.09C1138.53 232.192 1140.73 244.98 1140.62 257.853C1140.72 270.77 1138.59 283.607 1134.33 295.803C1130.4 307.146 1124.31 317.623 1116.41 326.657C1108.2 335.939 1098.06 343.323 1086.71 348.297C1075.36 353.27 1063.07 355.715 1050.68 355.459C1038.32 355.589 1026.11 352.833 1015 347.41C1004.82 342.617 996.177 335.089 990.027 325.665H989.262V441.623H943.491V167.047H987.289ZM1094.1 257.826C1094.08 250.647 1092.99 243.511 1090.85 236.657C1088.77 229.828 1085.48 223.429 1081.13 217.769C1076.72 212.11 1071.11 207.49 1064.72 204.234C1057.49 200.661 1049.51 198.893 1041.45 199.082C1033.61 198.955 1025.87 200.8 1018.93 204.448C1012.46 207.901 1006.7 212.559 1001.97 218.172C997.224 223.801 993.582 230.272 991.234 237.248C988.861 244.119 987.637 251.334 987.612 258.604C987.626 265.813 988.85 272.969 991.234 279.773C993.611 286.675 997.251 293.075 1001.97 298.648C1006.67 304.242 1012.44 308.843 1018.93 312.183C1026.08 315.605 1033.92 317.366 1041.84 317.333C1049.77 317.301 1057.59 315.476 1064.71 311.995C1071.09 308.629 1076.68 303.946 1081.11 298.258C1085.49 292.547 1088.79 286.082 1090.84 279.182C1092.97 272.263 1094.06 265.066 1094.09 257.826" fill="white"/>
<path d="M1302.23 326.872H1301.09C1295.88 335.605 1288.17 342.581 1278.97 346.901C1268.19 352.249 1256.29 354.931 1244.27 354.722C1236.49 354.675 1228.74 353.715 1221.19 351.865C1213.31 350.015 1205.82 346.786 1199.06 342.327C1192.23 337.792 1186.5 331.799 1182.27 324.78C1177.58 316.636 1175.26 307.344 1175.57 297.951C1174.96 285.91 1179.14 274.117 1187.2 265.151C1195.56 256.636 1205.82 250.231 1217.14 246.464C1230.27 241.944 1243.92 239.06 1257.76 237.879C1272.63 236.483 1287.19 235.786 1301.44 235.786V231.171C1301.78 226.227 1300.81 221.282 1298.63 216.829C1296.46 212.377 1293.15 208.575 1289.04 205.804C1280.24 200.189 1269.97 197.334 1259.53 197.607C1249.91 197.597 1240.41 199.68 1231.68 203.711C1223.48 207.31 1215.99 212.349 1209.56 218.588L1185.91 190.739C1196.31 181.093 1208.57 173.691 1221.95 168.993C1235.23 164.222 1249.23 161.772 1263.34 161.749C1277.08 161.297 1290.77 163.633 1303.59 168.617C1313.21 172.527 1321.78 178.67 1328.56 186.54C1334.59 193.767 1338.95 202.231 1341.33 211.331C1343.72 220.289 1344.94 229.519 1344.96 238.791V350.134H1302.23V326.872ZM1301.46 266.6H1291.16C1283.78 266.6 1276.03 266.917 1267.9 267.552C1260.26 268.096 1252.71 269.506 1245.39 271.751C1239.11 273.601 1233.27 276.714 1228.23 280.9C1225.94 282.911 1224.14 285.412 1222.95 288.218C1221.76 291.023 1221.22 294.061 1221.37 297.105C1221.23 300.929 1222.22 304.708 1224.22 307.971C1226.11 310.879 1228.66 313.297 1231.67 315.027C1234.86 316.86 1238.34 318.148 1241.96 318.837C1245.72 319.594 1249.56 319.976 1253.4 319.977C1259.92 320.446 1266.47 319.572 1272.64 317.407C1278.8 315.243 1284.46 311.835 1289.26 307.394C1293.46 302.766 1296.71 297.347 1298.81 291.454C1300.9 285.561 1301.8 279.311 1301.46 273.066V266.6Z" fill="white"/>
<path d="M1440.94 61.7681H1395.17V350.134H1440.94V61.7681Z" fill="white"/>
<path d="M266.588 150.766C265.623 101.976 243.641 72.8094 225.305 57.0466C205.252 39.6752 182.412 31.7402 165.041 29.7028C161.824 29.2739 158.822 29.1667 156.034 29.1667H114.321C112.713 29.1667 111.104 29.1667 109.603 29.2739H109.496C91.8027 29.2739 58.7757 29.2739 43.7635 5.79044C41.4044 2.14461 37.4369 0 33.1477 0C27.4645 0 22.5319 3.64583 21.0306 9.22181C20.3873 11.6881 19.8511 14.5833 19.7439 17.9075C13.4173 18.2292 8.27022 23.0545 7.73407 29.3811C7.5196 31.8474 7.51961 35.1716 8.27022 39.0319C4.08823 40.6403 0.978551 44.5006 0.335169 49.2187C-1.48775 63.0515 4.19546 74.3107 15.6691 80.2083C17.0631 80.8517 18.4571 81.4951 20.0656 82.0312C9.34252 99.4026 3.55208 119.669 3.55208 140.257V334.344C3.55208 343.03 10.6293 350 19.2077 350H207.397C214.903 350 221.337 344.638 222.731 337.347C224.125 330.377 224.768 323.192 224.768 316.008C224.768 294.24 218.549 273.116 206.646 255.101C199.784 244.593 191.312 235.478 181.447 227.865C199.784 221.538 215.439 208.456 224.876 190.656C224.983 190.548 225.09 190.334 225.09 190.119C229.701 193.98 233.99 198.376 237.958 202.987C240.424 205.882 243.963 207.491 247.716 207.491C253.613 207.491 258.76 203.523 260.154 197.733C264.229 181.541 266.374 165.885 266.695 151.195V150.98L266.588 150.766ZM216.726 186.152C207.504 203.416 191.312 216.284 171.797 220.895C166.757 222.074 161.61 222.718 156.248 222.825C161.074 225.077 165.684 227.65 170.081 230.653C197.639 249.096 215.654 280.193 215.654 315.901C215.654 322.656 215.01 329.197 213.724 335.524C213.08 338.526 210.399 340.778 207.29 340.778H19.1005C15.4547 340.778 12.5594 337.883 12.5594 334.237V140.15C12.5594 115.487 21.3523 92.7543 36.0429 75.1685C30.038 75.0613 24.2475 74.2034 19.8511 71.9516C9.23529 66.5901 8.59191 56.4032 9.34252 50.291C9.66421 47.7175 12.4522 46.4308 14.704 47.7175C17.8137 49.6477 22.3174 52.114 26.7138 53.6152C17.492 44.7151 16.3125 35.8149 16.7414 30.239C16.9559 27.451 20.28 26.057 22.4246 27.8799C25.7488 30.5607 30.5741 34.2065 35.0778 37.1017C27.7861 26.3787 28.1078 17.4786 29.7163 11.7953C30.5741 8.90012 34.4344 8.36397 36.0429 10.9375C53.307 37.8523 88.693 38.6029 109.496 38.6029C111.104 38.4957 112.713 38.4957 114.321 38.4957H146.812V53.7224H140.485C96.4136 53.7224 60.1697 87.5 56.2022 130.499C56.2022 130.607 56.2022 130.714 56.2022 130.928C56.095 131.572 56.095 132.215 56.095 132.858C56.095 133.502 55.9877 134.038 55.9877 134.681C55.9877 135.003 55.9877 135.325 55.9877 135.754C55.9877 136.075 55.9877 136.29 55.9877 136.612C55.9877 137.148 55.9877 137.791 55.9877 138.327C55.9877 152.911 59.7408 166.636 66.1746 178.646C66.818 179.825 67.4614 181.005 68.212 182.184C68.5337 182.721 68.9626 183.364 69.2843 183.9C70.0349 185.08 70.7855 186.152 71.5361 187.224C72.2868 188.297 73.1446 189.476 74.0024 190.441C78.1844 195.803 83.0098 200.628 88.3713 204.81C89.4436 205.668 90.5159 206.419 91.5882 207.276C92.6605 208.027 93.8401 208.778 95.0196 209.528C108.209 217.999 123.865 222.825 140.593 222.825H156.034V213.71V141.651C157.428 143.796 158.929 145.833 160.752 147.871C166.006 155.913 176.193 165.456 195.709 173.07C202.786 175.751 209.542 179.075 215.975 182.935C216.941 183.686 217.369 185.08 216.726 186.152ZM127.081 107.338C129.869 107.338 132.336 106.265 134.266 104.442C135.338 103.37 137.268 104.013 137.376 105.622C137.376 106.158 137.483 106.801 137.483 107.338C137.483 119.133 127.725 128.569 115.822 128.033C105.314 127.497 96.6281 118.919 96.0919 108.303C95.5558 96.4001 104.992 86.6422 116.787 86.6422C117.431 86.6422 117.967 86.6422 118.503 86.7494C120.004 86.8566 120.755 88.7868 119.575 89.8591C117.752 91.682 116.68 94.2555 116.68 97.0435C116.787 102.619 121.398 107.338 127.081 107.338ZM251.147 195.481C250.396 198.376 246.751 199.234 244.82 196.982C237.422 188.189 228.736 180.469 219.085 174.249C205.789 165.671 189.811 162.025 177.48 151.838C174.048 148.943 170.724 145.833 167.829 142.402C166.006 140.257 164.29 138.006 162.789 135.539C161.181 132.966 159.787 130.285 158.714 127.497C155.712 119.776 155.926 111.52 155.926 103.477L155.819 38.2812V38.3885L155.926 38.2812C158.714 38.2812 161.824 38.4957 164.934 38.9246C201.178 43.6428 255.865 75.7047 257.366 150.98C257.152 164.491 255.222 179.289 251.147 195.481Z" fill="white"/>
<path d="M156.247 222.825H155.926V222.717C156.033 222.717 156.14 222.825 156.247 222.825Z" fill="white"/>
<path d="M156.247 222.825H155.926V222.717C156.033 222.717 156.14 222.825 156.247 222.825Z" fill="white"/>
<path d="M156.247 222.825H155.926V222.717C156.033 222.717 156.14 222.825 156.247 222.825Z" fill="white"/>
<path d="M156.247 222.825H155.926V222.717C156.033 222.717 156.14 222.825 156.247 222.825Z" fill="white"/>
<path d="M94.8054 209.421C93.6259 208.67 92.5536 207.92 91.374 207.169C92.5536 207.92 93.7331 208.67 94.8054 209.421Z" fill="white"/>
</svg>
