<svg x="0px" y="0px" viewBox="0 0 1445 893" fill="none" xmlns="http://www.w3.org/2000/svg" xml:space="preserve">
<mask id="mask0" mask-type="alpha" maskUnits="userSpaceOnUse" x="0" y="166" width="1445" height="727">
<rect y="166" width="1445" height="727" fill="#000036"/>
</mask>
<g mask="url(#mask0)">
<path d="M1687.19 1085.23C1716.67 1076.94 1741.2 1060.2 1770.29 1051.28L1772.6 1059.44C1774.55 1066.32 1779.13 1047.29 1780.95 1044.56C1797.43 1019.87 1786.04 982.12 1778.78 956.504C1768.85 921.451 1758.71 888.772 1758.23 852.094C1757.6 803.877 1759.45 755.867 1752.7 707.833C1742.12 632.4 1706.37 555.34 1667.22 490.756C1634.34 436.512 1604.75 376.555 1564.51 327.262C1512.9 264.037 1426.65 243.148 1348.44 237.168C1208.43 226.462 1072.41 262.626 945.581 320.408C825.689 375.03 722.08 452.415 591.733 483.02C480.594 509.115 373.558 493.08 261.21 492.272C183.817 491.715 108.832 508.409 36.266 534.442C-86.8177 578.598 -166.033 671.426 -207.966 793.426C-241.682 891.52 -178.238 959.537 -104.141 1016.3C-20.9604 1080.03 88.0785 1126.77 194.143 1129.64C255.39 1131.31 315.76 1118.5 376.83 1115.81C409.729 1114.36 444.741 1110.99 477.022 1119.32C524.176 1131.48 569.897 1155.88 614.052 1175.88C649.566 1191.96 687.871 1205.09 726.532 1210.96C759.537 1215.98 792.541 1209.76 825.373 1206.24C881.5 1200.23 933.325 1180.41 985.57 1160.18C1039.1 1139.44 1080.41 1096.42 1134.79 1078.84C1200.67 1057.54 1278.93 1028.46 1348.25 1046.75C1415 1064.36 1481.6 1110.32 1552.43 1110.83C1598.91 1111.17 1643 1097.67 1687.19 1085.23Z" fill="#001A9C" fill-opacity="0.27"/>
<path d="M-124.792 322.316C-42.0062 306.208 37.4881 282.341 124.469 286.835C324.749 297.183 502.752 385.437 694.547 432.53C865.087 474.405 1046.8 456.494 1218.83 432.586C1363.05 412.543 1543.58 418.173 1645.65 539.847C1669.39 568.149 1694.79 603.984 1698.55 641.679C1705.36 710.036 1657.11 773.034 1603.43 809.787C1526.64 862.356 1452.39 902.231 1362.5 929.674C1254.69 962.582 1143.44 985.606 1033.1 1008.3C940.139 1027.43 846.391 1043 753.158 1060.76C634.698 1083.33 517.926 1113.24 399.296 1135.37C315.509 1151 229.435 1164.62 143.757 1159.64C82.9533 1156.11 46.0774 1137.66 11.5735 1088.36C-26.4029 1034.09 -37.9402 972.668 -49.6101 910.537L-49.7899 909.58C-60.3274 853.481 -70.5962 797.193 -75.1185 740.312C-80.6559 670.663 -83.0847 599.492 -95.0987 530.665C-101.589 493.482 -105.808 451.148 -123.987 417.672C-132.944 401.179 -142.429 373.891 -140.194 354.344C-139.601 349.163 -135.908 328.403 -129.39 323.202C-127.987 322.082 -126.453 321.683 -124.792 322.316Z" fill="#001A9C" fill-opacity="0.27"/>
</g>
</svg>
