<svg width="1237" height="662" viewBox="0 0 1237 662" fill="none" xmlns="http://www.w3.org/2000/svg">
  <g clip-path="url(#clip0)">
    <path d="M723.013 618.923L683.103 615.646L678.998 616.285C671.878 617.634 666.247 619.666 658.173 629.139C650.322 638.358 647.996 661 647.996 661C647.996 661 657.579 655.423 672.766 654.98C687.952 654.538 693.605 656.902 693.605 656.902C693.605 656.902 692.925 641.724 699.024 633.832C706.625 623.999 723.013 618.923 723.013 618.923Z" fill="#9EAF61"/>
    <path d="M651.916 656.216L652.154 654.406C652.172 654.26 652.635 650.797 653.871 646.115C655.539 639.803 657.725 634.556 660.368 630.517C665.702 622.37 675.507 617.274 689.509 615.387L689.853 616.992C676.621 618.776 667.423 624.425 662.514 631.925C657.848 639.055 655.708 648.919 654.989 652.934C658.4 652.229 665.748 650.784 670.403 650.396C677.138 649.835 685.515 650.903 688.763 651.381C689.053 648.744 689.884 642.835 691.92 637.71C693.737 633.119 696.833 629.145 700.84 626.261C703.88 624.077 706.38 623.274 706.485 623.24L707.261 625.687C707.24 625.687 704.979 626.432 702.258 628.403C698.676 630.981 695.915 634.54 694.307 638.651C691.797 644.964 691.204 652.866 691.192 652.945L691.09 654.352L689.7 654.116C689.59 654.098 678.657 652.276 670.618 652.952C664.691 653.445 653.81 655.804 653.7 655.827L651.916 656.216Z" fill="#639334"/>
    <path d="M685.765 616.704C681.745 617.37 676.125 624.851 685.635 626.695C695.956 628.691 702.112 626.565 705.394 625.014C708.675 623.462 695.394 617.361 695.394 617.361L685.765 616.704Z" fill="#639334"/>
    <path d="M679 616.285C679 616.285 688.211 614.494 703.635 626.391C713.487 633.988 730.89 657.944 730.89 657.944C730.89 657.944 734.986 651.09 742.825 645.874C755.56 637.402 762.994 635.042 762.994 635.042C762.994 635.042 754.045 622.939 741.218 618.61C710.29 608.17 679 616.285 679 616.285Z" fill="#BDE377"/>
    <path d="M757.997 634.607L759.992 634.049L758.503 632.598C758.127 632.232 749.179 623.562 738.653 618.519C737.118 617.783 735.493 617.088 733.836 616.434C728.338 615.067 722.74 614.138 717.095 613.657C722.463 614.588 729.378 614.753 738.538 620.381C745.856 624.871 752.409 630.31 755.365 632.959C750.386 634.763 745.679 637.243 741.375 640.33C736.881 643.574 732.483 647.668 730.569 649.511C727.153 644.913 714.172 627.694 707.716 622.821C702.003 618.51 695.651 615.737 691.328 614.17C691.257 614.144 691.269 614.162 691.199 614.137C689.156 614.374 687.549 614.681 685.955 614.937C690.39 616.194 698.805 619.089 706.278 624.729C713.315 630.031 729.299 651.809 729.459 652.028L730.283 653.152L731.267 652.167C731.325 652.111 737.068 646.388 742.774 642.267C750.344 636.795 757.922 634.628 757.997 634.607Z" fill="#6BA638"/>
    <path d="M691.203 614.129C693.326 615.126 705.708 618.804 714.088 617.579C722.467 616.354 724.405 614.932 721.011 614.217C717.617 613.502 714.169 612.96 706.449 613.001C698.729 613.043 691.203 614.129 691.203 614.129Z" fill="#6BA638"/>
    <path d="M735.283 630.226C733.63 631.237 731.738 631.156 731.062 630.046C730.386 628.937 731.177 627.218 732.832 626.208C734.487 625.198 736.377 625.278 737.055 626.388C737.732 627.497 736.938 629.216 735.283 630.226Z" fill="#6BA638"/>
    <path d="M677.723 641.057C675.793 640.864 674.334 639.659 674.463 638.366C674.592 637.072 676.26 636.18 678.189 636.373C680.118 636.566 681.574 637.771 681.445 639.064C681.316 640.357 679.652 641.249 677.723 641.057Z" fill="#639334"/>
  </g>
  <g clip-path="url(#clip1)">
    <path d="M164 244.953C164 244.953 154.103 234.932 141.646 232.358C129.188 229.785 101.537 233.069 92.2164 229.017C82.8959 224.965 74.1433 220 74.1433 220L51.0027 267.148C51.0027 267.148 72.6698 276.39 82.5503 277.346C96.3047 278.677 114.236 272.672 123.272 275.78C133.989 279.468 153.154 291.001 153.154 291.001L164 244.953Z" fill="#BDE377"/>
    <path d="M160.82 246.337C160.82 246.337 150.64 238.587 139.12 236.255C127.6 233.922 102.205 236.042 93.5376 232.572C84.8708 229.101 76.7156 224.901 76.7156 224.901L56.8475 264.522C56.8475 264.522 69.7071 270.788 82.9298 273.465C93.614 275.628 115.13 269.739 123.597 272.194C132.064 274.648 150.771 284.551 150.771 284.551L160.82 246.337Z" fill="#6BA638"/>
    <path d="M124.354 268.834C134.241 271.163 148.853 279.796 148.853 279.796L157.533 248.366C157.533 248.366 150.649 242.139 138.131 239.048C127.261 236.366 101.696 238.569 93.3904 235.508C85.0853 232.446 77.2583 228.792 77.2583 228.792L62.2983 262.433C62.2983 262.433 72.1586 267.489 83.66 270.25C96.8719 273.424 116.188 266.911 124.354 268.834Z" fill="#BDE377"/>
    <path d="M116.544 236.808C123.789 236.702 127.622 240.855 125.441 251.564C122.935 263.879 115.199 271.035 110.145 270.913C105.091 270.791 94.3194 269.981 97.2745 255.162C99.2382 245.306 107.113 236.229 110.649 236.237C114.184 236.245 116.544 236.808 116.544 236.808Z" fill="#6BA638"/>
    <path d="M106.856 265.608L109.864 265.991L110.226 264.109C114.485 264.442 117.484 263.212 118.385 259.028C119.591 253.406 115.22 252.143 113.132 250.763C111.043 249.382 109.515 248.809 109.929 247.221C110.343 245.633 111.318 244.801 113.564 245.04C117.469 245.455 116.609 247.95 116.609 247.95L120.36 248.461C120.36 248.461 121.812 242.62 115.619 241.273L115.965 239.524L113.463 239.19L112.865 241.009C109.189 241.099 106.971 243.111 106.233 245.437C104.514 250.809 108.347 252.578 110.45 253.622C112.966 254.861 114.573 255.976 114.249 257.633C113.82 259.815 112.215 260.594 109.623 259.96C105.882 259.045 106.944 255.447 106.944 255.447L103.429 254.918C103.429 254.918 100.725 262.117 107.373 263.695L106.856 265.608Z" fill="#BDE377"/>
    <path d="M140.269 261.968C138.788 261.307 138.158 259.526 138.861 257.987C139.564 256.447 141.335 255.738 142.817 256.4C144.298 257.061 144.929 258.842 144.226 260.382C143.523 261.921 141.751 262.628 140.269 261.968Z" fill="#6BA638"/>
    <path d="M78.0748 251.019C76.5932 250.358 75.9623 248.576 76.6656 247.038C77.3688 245.5 79.1411 244.79 80.6226 245.451C82.1042 246.113 82.7338 247.894 82.0305 249.433C81.3273 250.973 79.5577 251.68 78.0748 251.019Z" fill="#6BA638"/>
  </g>
  <g clip-path="url(#clip2)">
    <path d="M1103.03 403.32C1104.29 403.787 1108.62 412.119 1125.34 417.75C1132.87 420.281 1147.56 416.353 1147.56 416.353L1172 451.227C1172 451.227 1164.83 454.33 1155.12 454.858C1132.53 456.086 1123.64 448.979 1123.64 448.979L1117.91 443.691L1103.03 403.32Z" fill="#A8C469"/>
    <path d="M1112.65 414.011C1112.65 414.011 1121.92 420.02 1128.79 420.562C1134.42 421.006 1146.82 418.784 1146.82 418.784L1167.85 449.419C1167.85 449.419 1151.62 453.559 1143.69 452.313C1118.87 448.419 1118.01 443.045 1118.01 443.045L1116.87 440.787C1116.87 440.787 1127.75 448.525 1142.93 449.854C1154.73 450.888 1163.95 447.669 1163.95 447.669L1145.92 421.029C1145.92 421.029 1135.4 423.097 1129.19 422.592C1122.98 422.087 1112.68 416.519 1112.68 416.519L1112.65 414.011Z" fill="#639334"/>
    <path d="M1107.77 414.891C1111.08 416.749 1117.43 419.729 1120.94 423.95C1123.34 426.836 1127.56 435.148 1126.96 438.584C1126.55 440.926 1124.43 443.68 1119.86 441.465C1115.29 439.251 1110.94 436.192 1110.94 436.192L1107.77 414.891Z" fill="#639334"/>
    <path d="M1114.36 421.961L1113.96 420.564L1116.2 421.209L1116.59 422.806C1117.62 423.341 1118.56 424.018 1119.15 424.626C1120.63 426.149 1123.42 430.739 1120.99 431.458C1118.89 432.079 1114.81 430.217 1116.41 433.958C1117.17 435.751 1120.45 436.992 1121.45 435.989C1122.2 435.235 1122.02 434.152 1122.02 434.152L1124.09 434.242C1124.09 434.242 1125.25 439.321 1120.56 439.236H1120.55L1120.95 440.909L1118.82 440.348L1118.38 438.78C1115.94 437.848 1113.68 435.616 1112.86 433.338C1111.9 430.681 1114.01 429.071 1115.74 429.246C1117.47 429.421 1119.56 429.778 1119.19 428.206C1118.82 426.634 1117.25 424.764 1115.6 424.533C1113.94 424.302 1113.56 426.167 1113.56 426.167L1111.08 425.292C1111.08 425.292 1110.72 422.666 1112.5 421.991C1113.01 421.792 1113.66 421.807 1114.36 421.961Z" fill="#A8C469"/>
    <path d="M1088.37 365L1119.81 396.074C1119.81 396.074 1114.61 412.022 1115.22 420.689C1116.73 442.008 1123.69 449.014 1123.69 449.014C1123.69 449.014 1115.71 444.477 1106.75 431.873C1093.11 412.682 1085.47 396.26 1085.47 396.26C1085.47 396.26 1083.56 389.852 1084.1 383.3C1084.63 376.747 1088.37 365 1088.37 365Z" fill="#BDE377"/>
    <path d="M1119.64 446.055C1119.64 446.055 1113.64 438.134 1112.35 424.738C1111.6 416.914 1116.59 397.535 1116.59 397.535L1089.47 369.412C1089.47 369.412 1086.95 378.046 1086.1 383.378C1084.81 391.432 1086.62 398.751 1086.62 398.751L1088.7 402.759C1088.7 402.759 1087.19 397.463 1088.16 386.936C1088.53 382.896 1090.99 374.55 1091.07 374.747C1091.14 374.944 1113.8 398.524 1113.8 398.524C1113.8 398.524 1110.14 417.074 1110.31 423.299C1110.67 435.379 1116.47 443.374 1116.47 443.374L1119.64 446.055Z" fill="#6BA638"/>
    <path d="M1111.43 437.908C1111.43 437.908 1110.61 434.908 1106.85 426.916C1103.95 420.753 1098.71 415.314 1097.25 415.032C1096.3 414.849 1096.01 415.131 1095.92 415.348C1098.94 420.358 1102.6 426.041 1106.83 431.991C1108.4 434.213 1109.95 436.172 1111.43 437.908Z" fill="#6BA638"/>
    <path d="M1145.04 438.657C1143.83 439.514 1141.88 438.784 1140.68 437.038C1139.48 435.292 1139.5 433.173 1140.72 432.315C1141.93 431.457 1143.88 432.188 1145.07 433.932C1146.26 435.677 1146.25 437.804 1145.04 438.657Z" fill="#639334"/>
    <path d="M1101.92 403.044C1100.7 404.121 1098.61 403.688 1097.23 402.079C1095.86 400.471 1095.74 398.292 1096.95 397.216C1098.16 396.141 1100.26 396.573 1101.63 398.183C1103.01 399.793 1103.13 401.964 1101.92 403.044Z" fill="#6BA638"/>
  </g>
  <g clip-path="url(#clip3)">
    <path d="M97.2329 574.855C93.452 568.138 89.5943 561.345 86.7295 555.573L82.0039 546.144L63.6953 520.161L70.4906 553.806C70.4906 553.806 77.8105 566.177 91.569 578.364C101.028 586.743 108.088 590.19 108.088 590.19C108.088 590.19 100.831 581.245 97.2329 574.855Z" fill="#9EAF61"/>
    <path d="M88.5072 574.238C85.9475 571.843 83.205 569.055 80.7375 566.078C75.3167 559.538 71.5525 554.116 71.5525 554.116C71.5525 554.116 70.1163 548.691 69.477 545.803C68.9024 543.203 67.7708 536.383 67.7599 536.117L69.2988 536.099C69.3008 536.162 70.8178 542.937 71.3556 545.373C71.9221 547.936 73.0865 552.375 73.3281 553.283C73.9295 554.141 77.3413 558.952 82.2232 564.839C86.4795 569.974 93.7457 576.835 97.2249 579.732C94.1934 575.967 89.5753 568.178 87.955 565.258C84.1724 558.433 78.711 545.274 78.6557 545.143L80.4329 544.391C80.4863 544.521 85.9082 557.581 89.6342 564.308C92.3145 569.145 99.3288 580.837 99.4027 580.956L101.864 585.052L98.0102 582.236C94.7014 579.743 91.5292 577.073 88.5072 574.238Z" fill="#639334"/>
    <path d="M68.6167 536.655C68.8304 538.161 70.5735 541.671 73.5791 543.911C76.5847 546.152 80.9671 548.129 80.1822 545.762C79.3974 543.394 68.6167 536.655 68.6167 536.655Z" fill="#639334"/>
    <path d="M17.0585 490.17C17.0585 490.17 32.6487 493.197 38.4761 495.985C55.6231 504.195 66.113 517.238 67.333 518.379C71.2669 522.058 86.803 555.729 86.803 555.729C86.803 555.729 79.6925 539.385 57.2105 532.957C45.9329 529.734 35.021 527.712 35.021 527.712L17.0585 490.17Z" fill="#BDE377"/>
    <path d="M81.4718 544.479C80.6217 542.712 80.3569 542.102 79.4143 540.185C76.1094 537.596 70.1868 532.861 62.7699 529.93C55.3529 526.999 41.6951 523.963 38.7708 523.333L24.1529 495.112C25.85 495.458 28.3502 496.039 31.2227 496.923C36.0902 498.422 43.5268 501.173 49.4025 505.107C58.6146 511.268 66.0348 518.484 71.2248 524.613C71.1694 524.28 70.9306 523.694 69.7225 521.683C64.2627 515.552 57.3205 508.694 50.0633 503.662C43.9456 499.42 36.9516 496.223 31.8819 494.666C26.4044 492.988 22.3516 492.389 22.1817 492.366L19.9117 492.038L37.194 525.398L37.7298 525.512C37.8904 525.546 53.9304 528.973 61.8997 532.122C69.6341 535.177 74.9346 538.816 78.0173 541.33C79.2294 542.311 80.3829 543.362 81.4718 544.479Z" fill="#6BA638"/>
    <path d="M70.4242 522.996C68.221 520.847 65.2098 518.526 65.9749 522.999C67.1763 530.011 75.5594 538.659 77.9271 540.629C80.2948 542.6 81.2037 543.614 81.0352 543.455C80.8667 543.296 78.6681 538.792 76.1636 533.674C73.659 528.555 70.4242 522.996 70.4242 522.996Z" fill="#6BA638"/>
    <path d="M47.8455 511.947C48.6312 513.795 48.5466 515.607 47.6567 515.993C46.7667 516.378 45.4099 515.192 44.6242 513.344C43.8385 511.496 43.9231 509.684 44.813 509.298C45.703 508.912 47.0598 510.099 47.8455 511.947Z" fill="#6BA638"/>
    <path d="M80.497 556.508C81.6706 558.142 82.2401 559.73 81.7812 560.063C81.3223 560.396 80.0053 559.34 78.8365 557.71C77.6677 556.079 77.095 554.488 77.5532 554.156C78.0114 553.824 79.3298 554.877 80.497 556.508Z" fill="#639334"/>
  </g>
  <g clip-path="url(#clip4)">
    <path d="M1128 231.054C1128 231.054 1130.12 241.907 1140.53 253.13C1146.6 259.673 1168.48 254.997 1178.73 272.654C1187.74 288.161 1186.21 311.001 1186.21 311.001L1236.98 281.221C1236.98 281.221 1238.02 259.725 1224.5 245.363C1215.34 235.631 1194.4 240.52 1182.64 228.81C1177.31 223.502 1170.09 213 1170.09 213L1128 231.054Z" fill="#BDE377"/>
    <path d="M1131.73 232.948C1131.73 232.948 1134.36 241.947 1143.7 250.877C1149.19 256.117 1173.71 252.829 1182.47 267.762C1190.16 280.875 1190.41 303.161 1190.41 303.161L1233.78 278.221C1233.78 278.221 1232.44 258.089 1220.88 245.951C1213.04 237.73 1190.97 241.298 1180.91 231.406C1176.35 226.928 1169.82 216.06 1169.82 216.06L1131.73 232.948Z" fill="#6BA638"/>
    <path d="M1135.3 234.625C1135.3 234.625 1137.17 241.018 1146.07 248.906C1154.14 256.048 1176.41 250.195 1184.51 265.254C1191.64 278.48 1193.03 297.388 1193.03 297.388L1230.12 276.062C1230.12 276.062 1229.85 260.477 1219.31 248.136C1212.17 239.776 1186.83 242.15 1178.1 231.715C1173.87 226.662 1169.51 219.005 1169.51 219.005L1135.3 234.625Z" fill="#BDE377"/>
    <path d="M1173.32 257.692C1169.11 255.9 1164.95 251.547 1172.74 246.412C1181.69 240.518 1192.97 238.924 1201.21 240.306C1209.46 241.689 1214.37 247.732 1204.16 254.127C1193.94 260.522 1184.72 262.46 1180.93 261.577C1177.15 260.695 1173.32 257.692 1173.32 257.692Z" fill="#6BA638"/>
    <path d="M1167.3 234.952C1167.83 236.51 1166.78 238.278 1164.96 238.902C1163.13 239.526 1161.23 238.767 1160.7 237.21C1160.17 235.653 1161.22 233.884 1163.04 233.26C1164.87 232.636 1166.77 233.395 1167.3 234.952Z" fill="#6BA638"/>
    <path d="M1214.46 269.292C1215.1 271.184 1214.14 273.221 1212.32 273.845C1210.49 274.469 1208.5 273.441 1207.86 271.549C1207.22 269.658 1208.18 267.62 1210 266.996C1211.82 266.372 1213.82 267.401 1214.46 269.292Z" fill="#6BA638"/>
    <path d="M1197.88 243.963L1199.4 243.009L1196.75 241.713L1195.08 242.868C1193.67 242.5 1192.23 242.334 1191.17 242.401C1188.53 242.571 1182.14 244.473 1183.83 247.178C1185.29 249.52 1190.67 251.23 1186.08 253.352C1183.89 254.37 1179.79 252.755 1179.68 250.983C1179.59 249.652 1180.65 248.799 1180.65 248.799L1178.64 247.154C1178.64 247.154 1173.36 250.886 1177.84 254.748L1177.86 254.759L1176.1 255.969L1178.56 257.243L1180.27 256.165C1183.33 257.35 1187.29 257.186 1189.93 255.763C1193.01 254.103 1192.35 250.837 1190.58 249.544C1188.81 248.251 1186.55 246.823 1188.19 245.679C1189.83 244.536 1192.84 244.119 1194.58 245.299C1196.32 246.478 1195.15 248.525 1195.15 248.525L1198.2 249.799C1198.2 249.799 1200.7 247.668 1199.58 245.543C1199.29 244.937 1198.66 244.406 1197.88 243.963Z" fill="#BDE377"/>
  </g>
  <g clip-path="url(#clip5)">
    <path d="M143.79 420.317L181.161 433.674L185.254 434.119C192.414 434.661 198.323 434.17 208.469 427.223C218.337 420.46 226.339 399.5 226.339 399.5C226.339 399.5 215.743 402.352 201.091 398.877C186.44 395.403 181.631 391.702 181.631 391.702C181.631 391.702 178.411 406.327 170.559 412.276C160.774 419.688 143.79 420.317 143.79 420.317Z" fill="#9EAF61"/>
    <path d="M221.367 403.049L220.677 404.711C220.623 404.846 219.296 408.024 216.919 412.164C213.712 417.746 210.28 422.181 206.72 425.348C199.535 431.736 188.849 434.073 174.963 432.278L175.043 430.661C188.165 432.357 198.411 429.338 205.024 423.457C211.31 417.866 215.875 409.024 217.587 405.385C214.143 405.181 206.74 404.673 202.184 403.848C195.593 402.655 187.846 399.489 184.859 398.2C183.909 400.637 181.606 406.05 178.349 410.407C175.438 414.311 171.461 417.3 166.889 419.018C163.422 420.318 160.823 420.441 160.714 420.446L160.596 417.918C160.616 417.923 162.971 417.794 166.078 416.615C170.165 415.08 173.716 412.4 176.304 408.898C180.317 403.531 182.901 396.161 182.932 396.089L183.389 394.775L184.659 395.356C184.76 395.401 194.761 399.941 202.63 401.359C208.43 402.41 219.448 402.956 219.559 402.962L221.367 403.049Z" fill="#639334"/>
    <path d="M178.884 431.985C182.902 432.382 190.19 426.701 181.556 422.506C172.186 417.958 165.749 418.402 162.212 419.038C158.675 419.674 169.832 428.889 169.832 428.889L178.884 431.985Z" fill="#639334"/>
    <path d="M185.253 434.119C185.253 434.119 175.978 433.461 164.247 418.178C156.754 408.418 146.205 381.146 146.205 381.146C146.205 381.146 140.535 386.621 131.7 389.576C117.347 394.375 109.628 394.715 109.628 394.715C109.628 394.715 115.108 408.533 126.283 415.945C153.228 433.818 185.253 434.119 185.253 434.119Z" fill="#BDE377"/>
    <path d="M114.301 396.41L112.249 396.43L113.304 398.194C113.57 398.638 119.925 409.188 128.715 416.689C129.997 417.783 131.375 418.863 132.795 419.91C137.71 422.622 142.832 424.942 148.113 426.848C143.211 424.585 136.634 422.654 129.3 414.946C123.44 408.794 118.555 401.935 116.4 398.655C121.627 398.214 126.766 397.061 131.674 395.226C136.804 393.29 142.058 390.52 144.361 389.257C146.458 394.511 154.492 414.234 159.429 420.529C163.799 426.099 169.173 430.368 172.911 432.969C172.972 433.012 172.966 432.992 173.026 433.034C175.042 433.332 176.659 433.452 178.25 433.617C174.326 431.283 167.008 426.368 161.292 419.082C155.909 412.229 146.163 387.395 146.065 387.145L145.563 385.864L144.37 386.549C144.3 386.588 137.342 390.563 130.829 393.023C122.186 396.29 114.379 396.41 114.301 396.41Z" fill="#6BA638"/>
    <path d="M173.019 433.041C171.241 431.547 160.325 424.869 151.991 423.886C143.657 422.902 141.438 423.759 144.505 425.311C147.572 426.862 150.734 428.262 158.136 430.203C165.537 432.144 173.019 433.041 173.019 433.041Z" fill="#6BA638"/>
    <path d="M134.929 406.408C136.77 405.87 138.56 406.432 138.924 407.662C139.289 408.892 138.093 410.325 136.251 410.862C134.409 411.399 132.62 410.838 132.254 409.608C131.889 408.378 133.087 406.945 134.929 406.408Z" fill="#6BA638"/>
    <path d="M192.794 410.862C194.592 411.54 195.682 413.062 195.228 414.26C194.774 415.458 192.95 415.88 191.153 415.202C189.355 414.523 188.269 413.002 188.722 411.804C189.176 410.606 190.997 410.184 192.794 410.862Z" fill="#639334"/>
  </g>
  <g clip-path="url(#clip6)">
    <path d="M995.655 622.438C995.655 622.438 1008.07 629.044 1020.73 627.795C1033.38 626.545 1058.8 615.202 1068.9 616.293C1078.99 617.384 1088.82 619.513 1088.82 619.513L1096.92 567.723C1096.92 567.723 1073.5 565.356 1063.79 567.381C1050.27 570.199 1034.93 581.247 1025.39 580.971C1014.06 580.641 992.353 575.348 992.353 575.348L995.655 622.438Z" fill="#BDE377"/>
    <path d="M998.28 620.175C998.28 620.175 1010.3 624.532 1021.98 623.332C1033.67 622.132 1057.28 612.568 1066.58 613.298C1075.88 614.029 1084.91 615.607 1084.91 615.607L1092.13 571.961C1092.13 571.961 1077.99 569.812 1064.58 571.191C1053.74 572.304 1034.95 584.306 1026.14 584.484C1017.33 584.661 996.54 580.785 996.54 580.785L998.28 620.175Z" fill="#6BA638"/>
    <path d="M1026.41 587.91C1016.29 588.629 999.78 584.746 999.78 584.746L1000.81 617.266C1000.81 617.266 1009.23 621.153 1022.1 620.378C1033.27 619.703 1057.01 610.009 1065.85 610.458C1074.68 610.907 1083.24 612.062 1083.24 612.062L1087.54 575.571C1087.54 575.571 1076.63 573.684 1064.83 574.47C1051.28 575.372 1034.78 587.316 1026.41 587.91Z" fill="#BDE377"/>
    <path d="M1043.37 616.098C1036.48 618.351 1031.59 615.534 1030.5 604.684C1029.24 592.208 1034.5 583.093 1039.36 581.707C1044.22 580.322 1054.74 577.894 1056.31 592.888C1057.36 602.861 1052.54 613.848 1049.16 614.891C1045.79 615.933 1043.37 616.098 1043.37 616.098Z" fill="#6BA638"/>
    <path d="M1044.07 585.784L1041.09 586.314L1041.3 588.214C1037.14 589.162 1034.64 591.224 1035.02 595.478C1035.53 601.192 1040.08 601.096 1042.48 601.791C1044.89 602.486 1046.51 602.577 1046.59 604.213C1046.67 605.849 1045.98 606.932 1043.77 607.371C1039.92 608.136 1040 605.504 1040 605.504L1036.27 606.131C1036.27 606.131 1036.61 612.127 1042.92 611.571L1043.11 613.339L1045.6 612.914L1045.63 611.003C1049.11 609.825 1050.63 607.25 1050.65 604.815C1050.69 599.187 1046.51 598.64 1044.2 598.271C1041.43 597.838 1039.56 597.253 1039.38 595.578C1039.14 593.372 1040.44 592.153 1043.1 591.987C1046.95 591.747 1047 595.491 1047 595.491L1050.51 594.95C1050.51 594.95 1050.96 587.288 1044.15 587.761L1044.07 585.784Z" fill="#BDE377"/>
    <path d="M1013.26 599.179C1014.87 599.368 1016 600.878 1015.78 602.554C1015.57 604.229 1014.09 605.43 1012.48 605.241C1010.87 605.051 1009.74 603.541 1009.95 601.866C1010.17 600.191 1011.65 598.99 1013.26 599.179Z" fill="#6BA638"/>
    <path d="M1075.87 591.131C1077.48 591.321 1078.61 592.83 1078.39 594.504C1078.18 596.178 1076.7 597.381 1075.09 597.192C1073.48 597.002 1072.35 595.492 1072.56 593.817C1072.78 592.141 1074.26 590.942 1075.87 591.131Z" fill="#6BA638"/>
  </g>
  <g clip-path="url(#clip7)">
    <path d="M291.612 649.553C291.612 649.553 298.71 637.409 297.967 624.716C297.224 612.022 286.905 586.172 288.399 576.126C289.892 566.08 292.412 556.346 292.412 556.346L240.987 546.178C240.987 546.178 237.687 569.485 239.322 579.272C241.597 592.897 252.024 608.66 251.367 618.188C250.585 629.488 244.428 650.971 244.428 650.971L291.612 649.553Z" fill="#BDE377"/>
    <path d="M289.455 646.838C289.455 646.838 294.29 635.007 293.557 623.281C292.825 611.556 284.212 587.582 285.314 578.318C286.416 569.053 288.353 560.094 288.353 560.094L245.03 551.142C245.03 551.142 242.318 565.176 243.16 578.635C243.839 589.51 255.081 608.764 254.906 617.574C254.731 626.383 250.028 647.003 250.028 647.003L289.455 646.838Z" fill="#6BA638"/>
    <path d="M258.341 617.439C258.654 627.587 254.115 643.925 254.115 643.925L286.65 644.191C286.65 644.191 290.871 635.936 290.61 623.051C290.383 611.862 281.645 587.746 282.447 578.936C283.248 570.126 284.745 561.625 284.745 561.625L248.454 555.867C248.454 555.867 246.133 566.694 246.447 578.512C246.807 592.089 258.081 609.058 258.341 617.439Z" fill="#BDE377"/>
    <path d="M287.185 601.626C289.162 608.595 286.151 613.368 275.266 614.027C262.75 614.787 253.852 609.166 252.662 604.254C251.472 599.343 249.466 588.733 264.511 587.76C274.518 587.111 285.303 592.371 286.21 595.786C287.117 599.202 287.185 601.626 287.185 601.626Z" fill="#6BA638"/>
    <path d="M256.922 599.711L257.332 602.714L259.239 602.578C260.02 606.775 261.981 609.354 266.246 609.144C271.976 608.856 272.062 604.31 272.853 601.937C273.643 599.564 273.799 597.94 275.437 597.929C277.075 597.919 278.129 598.646 278.479 600.877C279.089 604.754 276.463 604.568 276.463 604.568L276.94 608.322C276.94 608.322 282.945 608.215 282.642 601.888L284.416 601.77L284.091 599.268L282.183 599.161C281.145 595.635 278.633 594.012 276.2 593.9C270.579 593.628 269.865 597.785 269.403 600.085C268.86 602.834 268.202 604.674 266.521 604.789C264.307 604.939 263.141 603.591 263.081 600.924C262.995 597.075 266.738 597.172 266.738 597.172L266.338 593.641C266.338 593.641 258.7 592.889 258.9 599.716L256.922 599.711Z" fill="#BDE377"/>
    <path d="M269.076 631.033C269.33 629.432 270.884 628.364 272.549 628.646C274.214 628.927 275.356 630.454 275.102 632.055C274.848 633.657 273.294 634.726 271.629 634.444C269.963 634.163 268.823 632.634 269.076 631.033Z" fill="#6BA638"/>
    <path d="M263.536 568.152C263.79 566.551 265.344 565.482 267.008 565.764C268.672 566.046 269.815 567.574 269.561 569.175C269.307 570.776 267.753 571.844 266.088 571.562C264.423 571.281 263.283 569.755 263.536 568.152Z" fill="#6BA638"/>
  </g>
  <g clip-path="url(#clip8)">
    <path d="M725 24.9534C725 24.9534 715.103 14.9318 702.646 12.3583C690.188 9.78484 662.537 13.0685 653.216 9.01651C643.896 4.9645 635.143 -3.92776e-06 635.143 -3.92776e-06L612.003 47.1482C612.003 47.1482 633.67 56.3895 643.55 57.3456C657.305 58.6774 675.236 52.6721 684.272 55.7798C694.989 59.4682 714.154 71.0013 714.154 71.0013L725 24.9534Z" fill="#BDE377"/>
    <path d="M721.82 26.3371C721.82 26.3371 711.64 18.5875 700.12 16.2547C688.6 13.9218 663.205 16.0417 654.538 12.5716C645.871 9.10148 637.716 4.90136 637.716 4.90136L617.848 44.5221C617.848 44.5221 630.707 50.7879 643.93 53.4646C654.614 55.6281 676.13 49.7392 684.597 52.1937C693.064 54.6482 711.771 64.5507 711.771 64.5507L721.82 26.3371Z" fill="#6BA638"/>
    <path d="M685.354 48.8338C695.241 51.1626 709.853 59.7956 709.853 59.7956L718.533 28.3662C718.533 28.3662 711.649 22.1387 699.131 19.0481C688.261 16.3662 662.696 18.5694 654.39 15.5079C646.085 12.4464 638.258 8.79248 638.258 8.79248L623.298 42.4331C623.298 42.4331 633.159 47.4889 644.66 50.2502C657.872 53.4241 677.188 46.9109 685.354 48.8338Z" fill="#BDE377"/>
    <path d="M677.544 16.8081C684.789 16.7023 688.622 20.8548 686.441 31.5641C683.935 43.8788 676.199 51.0346 671.145 50.9129C666.091 50.7912 655.319 49.9806 658.274 35.1625C660.238 25.3062 668.113 16.2289 671.649 16.2368C675.184 16.2448 677.544 16.8081 677.544 16.8081Z" fill="#6BA638"/>
    <path d="M667.856 45.6082L670.864 45.9903L671.226 44.1085C675.485 44.4417 678.484 43.2119 679.385 39.0276C680.591 33.4059 676.22 32.1429 674.132 30.7623C672.043 29.3816 670.515 28.809 670.929 27.2207C671.343 25.6325 672.318 24.8006 674.564 25.04C678.469 25.4552 677.609 27.9494 677.609 27.9494L681.36 28.4612C681.36 28.4612 682.812 22.6199 676.619 21.2723L676.965 19.524L674.463 19.1895L673.865 21.0092C670.189 21.0991 667.971 23.1105 667.233 25.4367C665.514 30.8086 669.347 32.578 671.45 33.6214C673.966 34.8606 675.573 35.9754 675.249 37.6324C674.82 39.8145 673.215 40.5934 670.623 39.96C666.882 39.0448 667.944 35.4464 667.944 35.4464L664.429 34.9174C664.429 34.9174 661.725 42.1169 668.373 43.6946L667.856 45.6082Z" fill="#BDE377"/>
    <path d="M701.269 41.9685C699.788 41.3073 699.158 39.5259 699.861 37.9866C700.564 36.4472 702.335 35.7384 703.817 36.3996C705.298 37.0609 705.929 38.8422 705.226 40.3815C704.523 41.9209 702.751 42.6284 701.269 41.9685Z" fill="#6BA638"/>
    <path d="M639.075 31.0189C637.593 30.3577 636.962 28.5764 637.666 27.0384C638.369 25.5004 640.141 24.7902 641.623 25.4514C643.104 26.1127 643.734 27.894 643.031 29.4333C642.327 30.9727 640.558 31.6802 639.075 31.0189Z" fill="#6BA638"/>
  </g>
  <g clip-path="url(#clip9)">
    <path d="M1141.01 48.9229L1101.1 45.646L1097 46.2848C1089.88 47.6336 1084.25 49.6665 1076.17 59.139C1068.32 68.358 1066 91.0002 1066 91.0002C1066 91.0002 1075.58 85.4227 1090.77 84.9804C1105.95 84.5382 1111.61 86.9021 1111.61 86.9021C1111.61 86.9021 1110.93 71.7241 1117.02 63.8319C1124.62 53.9986 1141.01 48.9229 1141.01 48.9229Z" fill="#9EAF61"/>
    <path d="M1069.92 86.2163L1070.15 84.4059C1070.17 84.2598 1070.63 80.7966 1071.87 76.1154C1073.54 69.8034 1075.73 64.5557 1078.37 60.5171C1083.7 52.3701 1093.51 47.2737 1107.51 45.387L1107.85 46.9918C1094.62 48.7764 1085.42 54.425 1080.51 61.9254C1075.85 69.0546 1073.71 78.9189 1072.99 82.9343C1076.4 82.2295 1083.75 80.7837 1088.4 80.3958C1095.14 79.8345 1103.52 80.9027 1106.76 81.3812C1107.05 78.7444 1107.88 72.8346 1109.92 67.7097C1111.74 63.1187 1114.83 59.1453 1118.84 56.2613C1121.88 54.0771 1124.38 53.274 1124.48 53.2404L1125.26 55.6871C1125.24 55.6871 1122.98 56.432 1120.26 58.4028C1116.68 60.9811 1113.91 64.54 1112.31 68.6512C1109.8 74.9644 1109.2 82.8657 1109.19 82.9446L1109.09 84.3516L1107.7 84.1162C1107.59 84.0981 1096.66 82.276 1088.62 82.9524C1082.69 83.4451 1071.81 85.8038 1071.7 85.8271L1069.92 86.2163Z" fill="#639334"/>
    <path d="M1103.76 46.7036C1099.75 47.3696 1094.12 54.8506 1103.64 56.6947C1113.96 58.6913 1120.11 56.5653 1123.39 55.0135C1126.68 53.4617 1113.39 47.3605 1113.39 47.3605L1103.76 46.7036Z" fill="#639334"/>
    <path d="M1097 46.2846C1097 46.2846 1106.21 44.4936 1121.64 56.3908C1131.49 63.9881 1148.89 87.9442 1148.89 87.9442C1148.89 87.9442 1152.99 81.0904 1160.82 75.8737C1173.56 67.4021 1180.99 65.0421 1180.99 65.0421C1180.99 65.0421 1172.04 52.9393 1159.22 48.6097C1128.29 38.1699 1097 46.2846 1097 46.2846Z" fill="#BDE377"/>
    <path d="M1176 64.6074L1177.99 64.0488L1176.5 62.5978C1176.13 62.2319 1167.18 53.5624 1156.65 48.5191C1155.12 47.7833 1153.49 47.0875 1151.84 46.4345C1146.34 45.0671 1140.74 44.1383 1135.1 43.6567C1140.46 44.5878 1147.38 44.7533 1156.54 50.3812C1163.86 54.8711 1170.41 60.3102 1173.37 62.9586C1168.39 64.7629 1163.68 67.2432 1159.37 70.3297C1154.88 73.5743 1150.48 77.6685 1148.57 79.5112C1145.15 74.9127 1132.17 57.6941 1125.72 52.8215C1120 48.51 1113.65 45.7375 1109.33 44.1701C1109.26 44.1443 1109.27 44.1624 1109.2 44.1365C1107.16 44.3744 1105.55 44.6809 1103.96 44.937C1108.39 46.1939 1116.81 49.0894 1124.28 54.7289C1131.31 60.0309 1147.3 81.8092 1147.46 82.0278L1148.28 83.1515L1149.27 82.1674C1149.32 82.1105 1155.07 76.3882 1160.77 72.2669C1168.34 66.7955 1175.92 64.6281 1176 64.6074Z" fill="#6BA638"/>
    <path d="M1109.2 44.1289C1111.33 45.1259 1123.71 48.8037 1132.09 47.5791C1140.47 46.3544 1142.41 44.9319 1139.01 44.2168C1135.62 43.5017 1132.17 42.9599 1124.45 43.0012C1116.73 43.0426 1109.2 44.1289 1109.2 44.1289Z" fill="#6BA638"/>
    <path d="M1153.28 60.2261C1151.63 61.2373 1149.74 61.1558 1149.06 60.0463C1148.39 58.9368 1149.18 57.2181 1150.83 56.2082C1152.49 55.1982 1154.38 55.2784 1155.05 56.3879C1155.73 57.4975 1154.94 59.2161 1153.28 60.2261Z" fill="#6BA638"/>
    <path d="M1095.72 71.0567C1093.79 70.864 1092.33 69.6588 1092.46 68.3656C1092.59 67.0724 1094.26 66.1802 1096.19 66.3728C1098.12 66.5655 1099.57 67.7708 1099.44 69.0639C1099.32 70.3571 1097.65 71.2494 1095.72 71.0567Z" fill="#639334"/>
  </g>
  <g clip-path="url(#clip10)">
    <path d="M133 27.8698C133 27.8698 135.116 38.6118 145.529 49.7202C151.601 56.1965 173.477 51.5687 183.733 69.0455C192.738 84.3945 191.211 107.001 191.211 107.001L241.981 77.5253C241.981 77.5253 243.021 56.2482 229.501 42.0324C220.344 32.4001 199.395 37.2391 187.64 25.649C182.313 20.3948 175.086 10 175.086 10L133 27.8698Z" fill="#BDE377"/>
    <path d="M136.732 29.7446C136.732 29.7446 139.359 38.6515 148.703 47.4903C154.185 52.6766 178.714 49.423 187.468 64.2032C195.161 77.1823 195.412 99.241 195.412 99.241L238.778 74.5551C238.778 74.5551 237.441 54.6285 225.88 42.6143C218.044 34.4773 195.967 38.0087 185.914 28.2183C181.353 23.7856 174.82 13.0288 174.82 13.0288L136.732 29.7446Z" fill="#6BA638"/>
    <path d="M140.299 31.4042C140.299 31.4042 142.169 37.7327 151.075 45.5402C159.138 52.6089 181.407 46.8154 189.515 61.7212C196.636 74.8125 198.025 93.5275 198.025 93.5275L235.116 72.4188C235.116 72.4188 234.853 56.9929 224.312 44.7778C217.172 36.5033 191.83 38.8527 183.098 28.5244C178.873 23.5228 174.514 15.9443 174.514 15.9443L140.299 31.4042Z" fill="#BDE377"/>
    <path d="M178.321 54.2358C174.108 52.4627 169.948 48.1541 177.742 43.0713C186.687 37.2378 197.965 35.6597 206.211 37.028C214.457 38.3962 219.373 44.3774 209.156 50.7074C198.939 57.0373 189.72 58.9552 185.934 58.082C182.148 57.2087 178.321 54.2358 178.321 54.2358Z" fill="#6BA638"/>
    <path d="M172.299 31.7278C172.828 33.2704 171.779 35.0198 169.956 35.6374C168.133 36.2551 166.228 35.5045 165.701 33.9633C165.173 32.4222 166.222 30.6713 168.044 30.0537C169.865 29.436 171.772 30.1867 172.299 31.7278Z" fill="#6BA638"/>
    <path d="M219.457 65.7177C220.097 67.5898 219.141 69.6067 217.318 70.2243C215.495 70.842 213.499 69.8239 212.86 67.9518C212.222 66.0797 213.177 64.0628 215 63.4452C216.823 62.8276 218.815 63.8456 219.457 65.7177Z" fill="#6BA638"/>
    <path d="M202.88 40.6466L204.395 39.7025L201.754 38.4199L200.076 39.5636C198.672 39.1986 197.23 39.0346 196.175 39.1011C193.527 39.2695 187.136 41.152 188.831 43.8293C190.294 46.1477 195.665 47.8395 191.085 49.9406C188.892 50.9483 184.79 49.3496 184.677 47.5957C184.592 46.2777 185.65 45.434 185.65 45.434L183.635 43.8057C183.635 43.8057 178.36 47.4996 182.844 51.3221L182.857 51.3325L181.099 52.5308L183.563 53.7912L185.27 52.7244C188.326 53.8976 192.287 53.735 194.927 52.3269C198.008 50.6838 197.347 47.4509 195.579 46.1713C193.811 44.8917 191.551 43.4777 193.193 42.3459C194.835 41.214 197.843 40.8018 199.582 41.9691C201.32 43.1364 200.152 45.1621 200.152 45.1621L203.199 46.424C203.199 46.424 205.698 44.314 204.584 42.2114C204.287 41.6115 203.66 41.0855 202.88 40.6466Z" fill="#BDE377"/>
  </g>
  <defs>
    <clipPath id="clip0">
      <rect width="115" height="48" fill="white" transform="translate(648 613)"/>
    </clipPath>
    <clipPath id="clip1">
      <rect width="71" height="113" fill="white" transform="translate(164 220) rotate(90)"/>
    </clipPath>
    <clipPath id="clip2">
      <rect width="88" height="90" fill="white" transform="translate(1084 365)"/>
    </clipPath>
    <clipPath id="clip3">
      <rect width="132.103" height="38.2909" fill="white" transform="translate(22.1406 483) rotate(35.3272)"/>
    </clipPath>
    <clipPath id="clip4">
      <rect width="109" height="98" fill="white" transform="translate(1128 213)"/>
    </clipPath>
    <clipPath id="clip5">
      <rect width="113.976" height="47.3107" fill="white" transform="translate(214.092 445.198) rotate(-165)"/>
    </clipPath>
    <clipPath id="clip6">
      <rect width="70.8381" height="112.958" fill="white" transform="translate(1003.05 646.209) rotate(-107.29)"/>
    </clipPath>
    <clipPath id="clip7">
      <rect width="70.8381" height="112.958" fill="white" transform="translate(315.66 643.109) rotate(165)"/>
    </clipPath>
    <clipPath id="clip8">
      <rect width="71" height="113" fill="white" transform="translate(725) rotate(90)"/>
    </clipPath>
    <clipPath id="clip9">
      <rect width="115" height="48" fill="white" transform="translate(1066 43)"/>
    </clipPath>
    <clipPath id="clip10">
      <rect width="109" height="97" fill="white" transform="translate(133 10)"/>
    </clipPath>
  </defs>
</svg>
